<svg viewBox="0 0 130.75 80.5" fill="none" xmlns="http://www.w3.org/2000/svg" xmlns:xlink="http://www.w3.org/1999/xlink" id="d02997f9" x="0" y="0"><g id="Drupal-coder-v1.2" data-node-id="94:260" clip-path="url(#clip0_94_260)"><g id="services" data-node-id="94:774"><g id="adv2_7" data-node-id="94:781"><g id="Vector_178" data-node-id="I94:781;84:1955" opacity="0.07">
<path d="M46.09,60.56h15.48v-16.09h-15.48z" fill="#F6842D"/>
<path d="M23.289,20.78h15.481v-11.77h-15.481z" fill="#F6842D"/>
<path d="M34.69,32.62h15.48v-16.09h-15.48zM0.5,32.62h11.398v-11.84h-11.398zM23.289,44.46h11.401v-11.85h-11.401z" fill="#F6842D"/>
<path d="M46.09,72.38h15.48v-16.09h-15.48z" fill="#F6842D"/>
<path d="M42.01,80h19.55v-11.85h-19.55z" fill="#F6842D"/>
<path d="M11.898,80h11.399v-11.85h-11.399z" fill="#F6842D"/>
<path d="M46.09,25.02h15.48v-16.01h-15.48z" fill="#F6842D"/>
<path d="M23.289,68.14h11.401v-11.84h-11.401z" fill="#F6842D"/>
<path d="M57.42,36.87h15.48v-16.09h-15.48z" fill="#F6842D"/>
<path d="M57.42,48.69h15.48v-16.09h-15.48z" fill="#F6842D"/>
<path d="M57.42,60.56h15.48v-16.09h-15.48z" fill="#F6842D"/>
<path d="M57.42,72.38h15.48v-16.09h-15.48z" fill="#F6842D"/>
<path d="M57.49,9.01v11.77h11.32v47.37h-11.39v11.85h30.55c4.59,0 8.56,-0.54 11.9,-1.64c3.35,-1.08 6.09,-2.99 8.25,-5.71c2.15,-2.72 3.77,-6.4 4.82,-11.05c1.04,-4.62 1.56,-10.51 1.56,-17.66c0,-7.23 -0.49,-13.09 -1.46,-17.57c-0.99,-4.56 -2.53,-8.11 -4.62,-10.63c-2.08,-2.61 -4.91,-4.47 -8.07,-5.3c-3.27,-0.96 -7.24,-1.44 -11.88,-1.44zM80.7,18.72h7.37c2.54,0 4.74,0.3 6.58,0.91c1.91,0.56 3.53,1.88 4.52,3.68c1.18,1.84 2.03,4.43 2.55,7.77c0.6,3.34 0.89,7.76 0.89,13.29c0,5.51 -0.31,9.96 -0.89,13.37c-0.52,3.34 -1.37,5.95 -2.55,7.86c-1.09,1.76 -2.71,3.08 -4.62,3.76c-1.85,0.62 -4,0.92 -6.49,0.92h-7.36z" fill="#F6842D"/>
<path d="M46.09,32.62h11.39v-11.84h-11.39z" fill="#F6842D"/>
<path d="M34.69,80h11.4v-11.85h-11.4z" fill="#F6842D"/>
<path d="M34.69,20.78h11.4v-11.77h-11.4z" fill="#F6842D"/>
</g><g id="icons2/8" data-node-id="I94:781;82:2226">
<g id="Group 2_3" data-node-id="I94:781;82:2226;82:3452">
<g id="Group_26" data-node-id="I94:781;82:2226;82:3435">
<path id="Rectangle_24" data-node-id="I94:781;82:2226;82:3431" d="M62.5,8.28h47v-3.28c0,-2.76 -2.24,-5 -5,-5h-38c-2.76,0 -5,2.24 -5,5v3.28v13.24v16.51c0,2.77 2.24,5 5,5h38c2.76,0 5,-2.23 5,-5c0,-2.48 0,-5.02 0,-6.53" stroke="#F14D34" stroke-width="2.5"/>
<path id="Rectangle_25" data-node-id="I94:781;82:2226;82:3448" d="M81.5,43.52v16.51c0,2.77 2.24,5 5,5h38c2.76,0 5,-2.23 5,-5v-29.75M129.5,30.28v-3.28c0,-2.76 -2.24,-5 -5,-5h-7M129.5,30.28h-12" stroke="#F14D34" stroke-width="2.5"/>
<g id="Group_27" data-node-id="I94:781;82:2226;82:3447">
<path id="Rectangle_26" data-node-id="I94:781;82:2226;82:3444" d="M110.5,12l-11.5,3.53M110.5,27l-10.95,-2.52c-0.36,-0.08 -0.74,-0.13 -1.12,-0.13h-3.52c-2.43,0 -4.41,-1.97 -4.41,-4.41c0,-2.44 1.98,-4.41 4.41,-4.41h4.09M99,15.53v4.41" stroke="#050C33" stroke-width="2.5"/>
<rect id="Rectangle 2_6" data-node-id="I94:781;82:2226;82:3445" x="109.5" y="8" width="7" height="23" rx="3.5" stroke="#050C33" stroke-width="2.5"/>
<path id="Rectangle 2.1_2" data-node-id="I94:781;82:2226;82:3446" d="M99.5,24v8c0,1.1 -0.9,2 -2,2c-1.1,0 -2,-0.9 -2,-2v-8" stroke="#050C33" stroke-width="2.5"/>
</g>
<path id="Vector_179" data-node-id="I94:781;82:2226;82:3432" d="M65.96,4.55h2.05" stroke="#F14D34" stroke-width="2.5"/>
<path id="Vector_180" data-node-id="I94:781;82:2226;82:3433" d="M70.07,4.55h2.06" stroke="#F14D34" stroke-width="2.5"/>
<path id="Vector_181" data-node-id="I94:781;82:2226;82:3434" d="M74.19,4.55h2.05" stroke="#F14D34" stroke-width="2.5"/>
<path id="Vector_182" data-node-id="I94:781;82:2226;82:3437" d="M68.5,28h15" stroke="#F14D34" stroke-width="2.5"/>
<path id="Vector_183" data-node-id="I94:781;82:2226;82:3438" d="M68.5,32h8" stroke="#F14D34" stroke-width="2.5"/>
</g>
<rect id="Rectangle_27" data-node-id="I94:781;82:2226;82:3436" x="69.75" y="15.25" width="12.5" height="8.5" rx="3.75" stroke="#F14D34" stroke-width="2.5"/>
<circle id="Ellipse_9" data-node-id="I94:781;82:2226;82:3449" cx="115.40000000000009" cy="50.90000000000009" r="5.75" transform="rotate(-45, 115.40000000000009, 50.90000000000009)" stroke="#F14D34" stroke-width="2.5"/>
<path id="Vector_184" data-node-id="I94:781;82:2226;82:3450" d="M119.64,55.14l3.89,3.89" stroke="#F14D34" stroke-width="2.5"/>
</g>
</g></g></g></g><defs><clipPath id="clip0_94_260">
<rect width="1440" height="9378" fill="white" x="-974.5" y="-1280"/>
</clipPath></defs></svg>