<svg viewBox="0 0 84 84" fill="none" xmlns="http://www.w3.org/2000/svg" xmlns:xlink="http://www.w3.org/1999/xlink" x="0" y="0"><defs><filter id="filter26_d_94_260" x="-1" y="0" width="106" height="106" filterUnits="userSpaceOnUse" color-interpolation-filters="sRGB">
<feFlood flood-opacity="0" result="BackgroundImageFix"/>
<feColorMatrix in="SourceAlpha" type="matrix" values="0 0 0 0 0 0 0 0 0 0 0 0 0 0 0 0 0 0 127 0" result="hardAlpha"/>
<feOffset dy="1"/>
<feGaussianBlur stdDeviation="0.5"/>
<feColorMatrix type="matrix" values="0 0 0 0 0 0 0 0 0 0 0 0 0 0 0 0 0 0 0.1 0"/>
<feBlend mode="normal" in2="BackgroundImageFix" result="effect1_dropShadow_94_260"/>
<feBlend mode="normal" in="SourceGraphic" in2="effect1_dropShadow_94_260" result="shape"/>
</filter><filter id="filter27_d_94_260" x="4.393000000000029" y="6.1599999999998545" width="94.4392" height="94.4392" filterUnits="userSpaceOnUse" color-interpolation-filters="sRGB">
<feFlood flood-opacity="0" result="BackgroundImageFix"/>
<feColorMatrix in="SourceAlpha" type="matrix" values="0 0 0 0 0 0 0 0 0 0 0 0 0 0 0 0 0 0 127 0" result="hardAlpha"/>
<feOffset dy="1"/>
<feGaussianBlur stdDeviation="0.5"/>
<feColorMatrix type="matrix" values="0 0 0 0 0 0 0 0 0 0 0 0 0 0 0 0 0 0 0.1 0"/>
<feBlend mode="normal" in2="BackgroundImageFix" result="effect1_dropShadow_94_260"/>
<feBlend mode="normal" in="SourceGraphic" in2="effect1_dropShadow_94_260" result="shape"/>
</filter><filter id="filter28_d_94_260" x="8.543000000000006" y="28.51000000000022" width="96.139" height="55.736" filterUnits="userSpaceOnUse" color-interpolation-filters="sRGB">
<feFlood flood-opacity="0" result="BackgroundImageFix"/>
<feColorMatrix in="SourceAlpha" type="matrix" values="0 0 0 0 0 0 0 0 0 0 0 0 0 0 0 0 0 0 127 0" result="hardAlpha"/>
<feOffset dy="1"/>
<feGaussianBlur stdDeviation="0.5"/>
<feColorMatrix type="matrix" values="0 0 0 0 0 0 0 0 0 0 0 0 0 0 0 0 0 0 0.05 0"/>
<feBlend mode="normal" in2="BackgroundImageFix" result="effect1_dropShadow_94_260"/>
<feBlend mode="normal" in="SourceGraphic" in2="effect1_dropShadow_94_260" result="shape"/>
</filter><clipPath id="clip32_94_260">
<rect width="92.4392" height="92.4392" fill="white" transform="translate(5.393000000000029, 6.1599999999998545)"/>
</clipPath></defs><g id="support7">
<g id="Ellipse" filter="url(#filter26_d_94_260)">
<ellipse cx="52" cy="52" rx="52" ry="52" fill="#F5F5F5"/>
</g>
<g id="group" clip-path="url(#clip32_94_260)" filter="url(#filter27_d_94_260)">
<g id="Group_17" filter="url(#filter28_d_94_260)">
<g id="Group_18">
<path id="Vector_118" d="M82.941,44.07h1.527c2.508,0 4.525,2.04 4.525,4.53v7.1c0,0.46 -0.226,0.87 -0.603,1.12c-0.528,0.33 -0.83,0.92 -0.83,1.54v6.85c0,0.84 0.472,1.58 1.226,1.96c0.886,0.43 5.484,2.75 9.744,6.26c0.36,0.3 0.57,0.73 0.57,1.22v4.87c0,1.03 0.83,1.86 1.87,1.86c1.03,0 1.86,-0.83 1.86,-1.86v-4.87c0,-1.6 -0.7,-3.09 -1.94,-4.11c-3.75,-3.09 -7.768,-5.32 -9.615,-6.28v-5.03c0.905,-0.94 1.432,-2.19 1.432,-3.53v-7.1c0,-4.57 -3.714,-8.26 -8.257,-8.26h-1.528c-4.562,0 -8.257,3.71 -8.257,8.26v7.1c0,1.34 0.527,2.59 1.432,3.53v2.43c0,1.04 0.83,1.87 1.867,1.87c1.037,0 1.866,-0.83 1.866,-1.87v-3.28c0,-0.62 -0.32,-1.21 -0.829,-1.55c-0.377,-0.24 -0.603,-0.66 -0.603,-1.11v-7.11c0,-2.5 2.036,-4.54 4.543,-4.54z" fill="#F14D34" stroke="#F14D34" stroke-width="1.7"/>
<path id="Vector_119" d="M12.335,70.56c-1.226,1.02 -1.942,2.51 -1.942,4.11v4.86c0,1.04 0.829,1.87 1.866,1.87c1.037,0 1.867,-0.83 1.867,-1.87v-4.86c0,-0.47 0.207,-0.92 0.565,-1.23c4.261,-3.48 8.862,-5.82 9.748,-6.26c0.754,-0.37 1.225,-1.11 1.225,-1.96v-6.84c0,-0.62 -0.32,-1.21 -0.829,-1.55c-0.378,-0.24 -0.604,-0.66 -0.604,-1.11v-7.11c0,-2.5 2.036,-4.52 4.525,-4.52h1.527c2.508,0 4.525,2.04 4.525,4.52v7.11c0,0.45 -0.226,0.87 -0.603,1.11c-0.528,0.34 -0.83,0.93 -0.83,1.55v3.43c0,1.04 0.83,1.87 1.867,1.87c1.037,0 1.866,-0.83 1.866,-1.87v-2.56c0.905,-0.95 1.433,-2.19 1.433,-3.53v-7.11c0,-4.56 -3.714,-8.25 -8.258,-8.25h-1.527c-4.562,0 -8.258,3.71 -8.258,8.25v7.11c0,1.34 0.528,2.58 1.433,3.53v5.03c-1.829,0.96 -5.845,3.21 -9.596,6.28z" fill="#F14D34" stroke="#F14D34" stroke-width="1.7"/>
<path id="Vector_120" d="M79.058,81.4c1.036,0 1.866,-0.83 1.866,-1.87v-6.29c0,-1.91 -0.83,-3.68 -2.3,-4.89c-5.034,-4.14 -10.426,-7.09 -12.632,-8.22v-7.09c1.169,-1.13 1.848,-2.67 1.848,-4.33v-9.2c0,-5.6 -4.563,-10.15 -10.144,-10.15h-1.979c-5.6,0 -10.143,4.57 -10.143,10.15v9.2c0,1.66 0.678,3.2 1.847,4.33v7.09c-2.206,1.13 -7.598,4.08 -12.632,8.22c-1.47,1.21 -2.3,2.98 -2.3,4.89v6.29c0,1.04 0.83,1.87 1.867,1.87c1.037,0 1.866,-0.83 1.866,-1.87v-6.29c0,-0.78 0.34,-1.51 0.943,-2c5.562,-4.56 11.576,-7.6 12.726,-8.17c0.792,-0.37 1.282,-1.16 1.282,-2.03v-8.86c0,-0.62 -0.32,-1.21 -0.83,-1.55c-0.641,-0.43 -1.018,-1.13 -1.018,-1.9v-9.2c0,-3.55 2.885,-6.41 6.411,-6.41h1.979c3.545,0 6.41,2.88 6.41,6.41v9.2c0,0.75 -0.377,1.47 -1.018,1.9c-0.528,0.34 -0.829,0.93 -0.829,1.55v8.86c0,0.87 0.49,1.66 1.282,2.05c1.15,0.57 7.164,3.6 12.726,8.17c0.603,0.49 0.943,1.22 0.943,2v6.29c-0.038,1.02 0.792,1.85 1.829,1.85z" fill="#F14D34" stroke="#F14D34" stroke-width="1.7"/>
</g>
</g>
</g>
</g></svg>